<?xml version="1.0" encoding="UTF-8"?>
<svg width="444.86" height="444.86" version="1.1" viewBox="0 0 444.86 444.86" xmlns="http://www.w3.org/2000/svg">
 <rect width="444.86" height="444.86" fill="#fba61a" stroke-linecap="round" stroke-linejoin="round" stroke-width="1.016"/>
 <path d="m213.86 267.34h-22.039v-107.91h22.039z" fill="#fff"/>
 <path d="m248.92 267.34h-22.039v-107.91h22.039z" fill="#fff"/>
 <g fill="#fff">
  <path d="m25.946 231.27c0-7.3463 1.5738-13.859 4.7215-19.534 3.1476-5.6745 7.4661-10.134 12.95-13.38 5.4839-3.2402 11.806-4.863 18.962-4.863 10.592 0 19.18 2.7174 25.764 8.1577s10.211 12.836 10.875 22.186h-22.186c-0.7624-3.6269-2.2654-6.2953-4.509-8.0161-2.2437-1.7154-5.2715-2.5759-9.089-2.5759-3.055 0-5.7506 0.7407-8.0869 2.2219-2.3416 1.4812-4.1278 3.5561-5.3695 6.2245-1.2416 2.6738-1.8624 5.8705-1.8624 9.5899s0.5936 7.0849 1.7862 9.8023 2.908 4.7977 5.1517 6.2245c2.2382 1.4322 4.9392 2.1456 8.0869 2.1456 3.91 0 7.0359-0.8822 9.3721-2.6466s3.8392-4.4111 4.509-7.9453h22.186c-0.4792 6.012-2.3144 11.284-5.511 15.814-3.1967 4.5363-7.4226 8.0867-12.667 10.663-5.2497 2.576-11.213 3.861-17.889 3.861-7.5369 0-14.099-1.574-19.681-4.721-5.5819-3.148-9.9003-7.5591-12.95-13.239-3.0551-5.6744-4.5799-12.329-4.5799-19.964z"/>
  <path d="m103.8 231.42c0-7.5369 1.6936-14.148 5.0808-19.822 3.3873-5.6744 8.0597-10.091 14.023-13.239 5.9632-3.1476 12.759-4.7214 20.394-4.7214s14.404 1.5738 20.324 4.7214c5.914 3.1477 10.564 7.5642 13.951 13.239 3.388 5.6745 5.081 12.286 5.081 19.822 0 7.5368-1.693 14.121-5.081 19.752-3.387 5.6309-8.037 10.02-13.951 13.168-5.92 3.148-12.689 4.721-20.324 4.721s-14.431-1.573-20.394-4.721c-5.9631-3.148-10.641-7.5369-14.023-13.168-3.3872-5.6254-5.0808-12.209-5.0808-19.752zm22.186-0.1416c0 3.6268 0.741 6.7962 2.216 9.5191 1.476 2.7174 3.508 4.8195 6.083 6.2953 2.576 1.4812 5.582 2.2164 9.018 2.2164 3.437 0 6.443-0.7406 9.019-2.2164 2.575-1.4758 4.579-3.5779 6.012-6.2953 1.432-2.7174 2.145-5.8923 2.145-9.5191 0-3.6269-0.713-6.7745-2.145-9.4484-1.433-2.6684-3.437-4.7432-6.012-6.2244-2.576-1.4758-5.582-2.2165-9.019-2.2165-3.436 0-6.442 0.7407-9.018 2.2165-2.575 1.4812-4.601 3.556-6.083 6.2244-1.481 2.6739-2.216 5.8215-2.216 9.4484z"/>
  <path d="m283.56 269.2c-7.536 0-13.527-2.075-17.96-6.224-4.438-4.1501-6.654-9.7102-6.654-16.675 0-6.5839 2.265-11.828 6.796-15.744 4.531-3.91 11.093-6.2027 19.681-6.8725l20.035-1.5738v-1.1436c0-2.3852-0.48-4.3675-1.433-5.9413s-2.314-2.7664-4.078-3.5778c-1.765-0.8115-3.987-1.2144-6.655-1.2144-4.678 0-8.229 0.8604-10.663 2.5758-2.434 1.7208-3.648 4.1986-3.648 7.4443h-18.32c0-5.4403 1.383-10.162 4.15-14.17 2.766-4.008 6.703-7.1067 11.806-9.3013s11.044-3.2892 17.819-3.2892c6.774 0 12.857 1.2416 17.676 3.7194 4.814 2.4833 8.49 6.1047 11.023 10.875 2.526 4.7705 3.79 10.592 3.79 17.459v41.791h-19.463l-1.433-9.4488c-1.143 3.2458-3.839 5.9418-8.086 8.0868-4.248 2.146-9.04 3.219-14.383 3.219zm7.728-16.315c4.199 0 7.635-1.0238 10.303-3.0768 2.669-2.0531 4.008-5.1299 4.008-9.2305v-3.8665l-11.163 1.002c-4.771 0.3812-8.136 1.1708-10.091 2.3635-1.955 1.1926-2.936 2.9352-2.936 5.2224 0 2.5758 0.812 4.4873 2.435 5.7235 1.622 1.2416 4.1 1.8624 7.444 1.8624z"/>
 </g>
 <path d="m359.84 267.34h-20.753v-107.91h22.039v44.655c2.194-3.2402 5.462-5.8433 9.802-7.7983s9.089-2.9352 14.241-2.9352c6.676 0 12.476 1.6228 17.388 4.8684 4.912 3.2457 8.707 7.7765 11.376 13.598 2.668 5.8215 4.008 12.645 4.008 20.465 0 7.3463-1.454 13.81-4.368 19.392-2.913 5.5819-6.965 9.9008-12.165 12.95-5.201 3.055-11.186 4.58-17.96 4.58-4.961 0-9.47-1.024-13.528-3.077-4.057-2.053-7.035-4.699-8.947-7.9451l-1.143 9.1601zm1.433-36.209c0 3.5289 0.74 6.6547 2.216 9.3721 1.476 2.7175 3.529 4.8195 6.154 6.2953 2.625 1.4812 5.652 2.2164 9.089 2.2164 3.436 0 6.562-0.7624 9.089-2.2872 2.526-1.5248 4.481-3.6269 5.865-6.2953 1.383-2.6684 2.074-5.7724 2.074-9.3013 0-3.5288-0.691-6.6274-2.074-9.3013-1.384-2.6684-3.339-4.7704-5.865-6.2952-2.527-1.5248-5.561-2.2927-9.089-2.2927-3.529 0-6.464 0.7406-9.089 2.2219-2.625 1.4812-4.678 3.556-6.154 6.2244-1.481 2.6739-2.216 5.8215-2.216 9.4484z" fill="#fff"/>
</svg>
